Coordinates
version=1
nRows=53
nColumns=15
inDegrees=yes

Units are S.I. units (second, meters, Newtons, ...)
Angles are in degrees.

endheader
time	sacrum_pitch	sacrum_roll	sacrum_yaw	sacrum_x	sacrum_y	sacrum_z	sacroiliac_flx	hip_flx	hip_add	hip_int	knee_flx	ankle_flx	ankle_add	ankle_int
9.30000000	30.00000000	0.00000000	0.00000000	0.07569973	0.06283852	0.00000000	0.00000000	13.56488622	0.00000000	0.00000000	-91.44671283	16.52969858	0.00000000	0.00000000
9.30500000	30.00000000	0.00000000	0.00000000	0.07615858	0.06248846	0.00000000	0.00000000	12.78769306	0.00000000	0.00000000	-89.66167808	11.43601368	0.00000000	0.00000000
9.31000000	30.00000000	0.00000000	0.00000000	0.07664581	0.06213528	0.00000000	0.00000000	11.95934947	0.00000000	0.00000000	-87.97451327	6.03973581	0.00000000	0.00000000
9.31500000	30.00000000	0.00000000	0.00000000	0.07711852	0.06176824	0.00000000	0.00000000	10.87136999	0.00000000	0.00000000	-86.51204478	1.72027228	0.00000000	0.00000000
9.32000000	30.00000000	0.00000000	0.00000000	0.07761056	0.06140508	0.00000000	0.00000000	9.84136772	0.00000000	0.00000000	-84.95489518	-1.91904245	0.00000000	0.00000000
9.32500000	30.00000000	0.00000000	0.00000000	0.07808553	0.06099276	0.00000000	0.00000000	8.73007609	0.00000000	0.00000000	-83.38333581	-6.76514469	0.00000000	0.00000000
9.33000000	30.00000000	0.00000000	0.00000000	0.07858519	0.06053918	0.00000000	0.00000000	7.74418200	0.00000000	0.00000000	-82.10179618	-9.12089386	0.00000000	0.00000000
9.33500000	30.00000000	0.00000000	0.00000000	0.07920602	0.05994013	0.00000000	0.00000000	7.14888748	0.00000000	0.00000000	-81.29968456	-10.76254614	0.00000000	0.00000000
9.34000000	30.00000000	0.00000000	0.00000000	0.07980952	0.05936024	0.00000000	0.00000000	6.64384567	0.00000000	0.00000000	-82.29472932	-8.06046597	0.00000000	0.00000000
9.34500000	30.00000000	0.00000000	0.00000000	0.08043244	0.05877363	0.00000000	0.00000000	6.63527741	0.00000000	0.00000000	-84.07518156	-6.03988614	0.00000000	0.00000000
9.35000000	30.00000000	0.00000000	0.00000000	0.08101529	0.05824603	0.00000000	0.00000000	6.80437343	0.00000000	0.00000000	-85.31674127	-5.43848282	0.00000000	0.00000000
9.35500000	30.00000000	0.00000000	0.00000000	0.08153298	0.05787747	0.00000000	0.00000000	7.10155176	0.00000000	0.00000000	-86.83600165	-5.41629641	0.00000000	0.00000000
9.36000000	30.00000000	0.00000000	0.00000000	0.08200856	0.05762556	0.00000000	0.00000000	7.29108771	0.00000000	0.00000000	-88.28356237	-5.07460837	0.00000000	0.00000000
9.36500000	30.00000000	0.00000000	0.00000000	0.08247947	0.05751047	0.00000000	0.00000000	7.33151428	0.00000000	0.00000000	-89.57022468	-4.52873511	0.00000000	0.00000000
9.37000000	30.00000000	0.00000000	0.00000000	0.08293555	0.05747392	0.00000000	0.00000000	7.21516245	0.00000000	0.00000000	-90.58552119	-4.15740990	0.00000000	0.00000000
9.37500000	30.00000000	0.00000000	0.00000000	0.08338321	0.05747855	0.00000000	0.00000000	7.22605970	0.00000000	0.00000000	-91.20013444	-4.05612995	0.00000000	0.00000000
9.38000000	30.00000000	0.00000000	0.00000000	0.08370667	0.05756754	0.00000000	0.00000000	7.30202120	0.00000000	0.00000000	-91.81369589	-4.28382363	0.00000000	0.00000000
9.38500000	30.00000000	0.00000000	0.00000000	0.08399692	0.05770461	0.00000000	0.00000000	7.20628590	0.00000000	0.00000000	-92.16247601	-4.92664763	0.00000000	0.00000000
9.39000000	30.00000000	0.00000000	0.00000000	0.08413319	0.05792453	0.00000000	0.00000000	7.11171357	0.00000000	0.00000000	-92.62818525	-5.42364083	0.00000000	0.00000000
9.39500000	30.00000000	0.00000000	0.00000000	0.08418195	0.05824946	0.00000000	0.00000000	6.85863884	0.00000000	0.00000000	-92.72803410	-6.03847714	0.00000000	0.00000000
9.40000000	30.00000000	0.00000000	0.00000000	0.08416886	0.05860872	0.00000000	0.00000000	6.64772625	0.00000000	0.00000000	-93.00618739	-6.54211453	0.00000000	0.00000000
9.40500000	30.00000000	0.00000000	0.00000000	0.08411114	0.05896931	0.00000000	0.00000000	6.23887232	0.00000000	0.00000000	-93.06370629	-7.45748514	0.00000000	0.00000000
9.41000000	30.00000000	0.00000000	0.00000000	0.08403275	0.05929584	0.00000000	0.00000000	6.03344856	0.00000000	0.00000000	-93.23038971	-8.44502368	0.00000000	0.00000000
9.41500000	30.00000000	0.00000000	0.00000000	0.08395881	0.05959725	0.00000000	0.00000000	5.79240682	0.00000000	0.00000000	-93.41479134	-9.27907556	0.00000000	0.00000000
9.42000000	30.00000000	0.00000000	0.00000000	0.08387047	0.05987549	0.00000000	0.00000000	5.59907989	0.00000000	0.00000000	-93.62751572	-9.54553344	0.00000000	0.00000000
9.42500000	30.00000000	0.00000000	0.00000000	0.08378216	0.06012708	0.00000000	0.00000000	5.26479933	0.00000000	0.00000000	-93.64162511	-9.88400336	0.00000000	0.00000000
9.43000000	30.00000000	0.00000000	0.00000000	0.08368959	0.06037092	0.00000000	0.00000000	5.13106976	0.00000000	0.00000000	-93.79012519	-10.39376405	0.00000000	0.00000000
9.43500000	30.00000000	0.00000000	0.00000000	0.08358066	0.06061393	0.00000000	0.00000000	4.87332797	0.00000000	0.00000000	-93.79695983	-10.48748042	0.00000000	0.00000000
9.44000000	30.00000000	0.00000000	0.00000000	0.08343858	0.06085721	0.00000000	0.00000000	4.50160844	0.00000000	0.00000000	-93.84975378	-10.83238975	0.00000000	0.00000000
9.44500000	30.00000000	0.00000000	0.00000000	0.08331235	0.06106214	0.00000000	0.00000000	4.40878989	0.00000000	0.00000000	-94.05594967	-11.16688177	0.00000000	0.00000000
9.45000000	30.00000000	0.00000000	0.00000000	0.08317204	0.06126878	0.00000000	0.00000000	4.12469586	0.00000000	0.00000000	-93.88464785	-11.31867180	0.00000000	0.00000000
9.45500000	30.00000000	0.00000000	0.00000000	0.08306909	0.06145421	0.00000000	0.00000000	4.00303259	0.00000000	0.00000000	-94.03415795	-11.34807433	0.00000000	0.00000000
9.46000000	30.00000000	0.00000000	0.00000000	0.08294049	0.06159310	0.00000000	0.00000000	3.83168098	0.00000000	0.00000000	-93.98217375	-11.42948454	0.00000000	0.00000000
9.46500000	30.00000000	0.00000000	0.00000000	0.08281240	0.06169915	0.00000000	0.00000000	3.65790385	0.00000000	0.00000000	-94.09628788	-11.31395609	0.00000000	0.00000000
9.47000000	30.00000000	0.00000000	0.00000000	0.08271598	0.06177765	0.00000000	0.00000000	3.70019939	0.00000000	0.00000000	-94.42313927	-11.29648187	0.00000000	0.00000000
9.47500000	30.00000000	0.00000000	0.00000000	0.08265008	0.06189130	0.00000000	0.00000000	3.51016764	0.00000000	0.00000000	-94.45511720	-11.55315432	0.00000000	0.00000000
9.48000000	30.00000000	0.00000000	0.00000000	0.08261272	0.06197928	0.00000000	0.00000000	3.35265228	0.00000000	0.00000000	-94.48741484	-11.25224076	0.00000000	0.00000000
9.48500000	30.00000000	0.00000000	0.00000000	0.08257017	0.06209179	0.00000000	0.00000000	3.19946859	0.00000000	0.00000000	-94.69446168	-11.59807973	0.00000000	0.00000000
9.49000000	30.00000000	0.00000000	0.00000000	0.08255052	0.06221615	0.00000000	0.00000000	3.07429219	0.00000000	0.00000000	-94.85521572	-11.32307083	0.00000000	0.00000000
9.49500000	30.00000000	0.00000000	0.00000000	0.08255769	0.06239331	0.00000000	0.00000000	2.95150493	0.00000000	0.00000000	-95.02561120	-11.70248152	0.00000000	0.00000000
9.50000000	30.00000000	0.00000000	0.00000000	0.08255019	0.06256739	0.00000000	0.00000000	2.86581319	0.00000000	0.00000000	-95.25651792	-11.82502130	0.00000000	0.00000000
9.50500000	30.00000000	0.00000000	0.00000000	0.08252457	0.06273389	0.00000000	0.00000000	2.63764978	0.00000000	0.00000000	-95.21395900	-11.85060773	0.00000000	0.00000000
9.51000000	30.00000000	0.00000000	0.00000000	0.08251571	0.06289555	0.00000000	0.00000000	2.67320254	0.00000000	0.00000000	-95.50286978	-12.24962626	0.00000000	0.00000000
9.51500000	30.00000000	0.00000000	0.00000000	0.08254917	0.06300597	0.00000000	0.00000000	2.60625665	0.00000000	0.00000000	-95.77083478	-12.26722392	0.00000000	0.00000000
9.52000000	30.00000000	0.00000000	0.00000000	0.08256973	0.06315020	0.00000000	0.00000000	2.51382005	0.00000000	0.00000000	-95.95484279	-12.27592484	0.00000000	0.00000000
9.52500000	30.00000000	0.00000000	0.00000000	0.08257735	0.06327558	0.00000000	0.00000000	2.43651532	0.00000000	0.00000000	-96.06591409	-12.65919506	0.00000000	0.00000000
9.53000000	30.00000000	0.00000000	0.00000000	0.08259856	0.06342983	0.00000000	0.00000000	2.23920150	0.00000000	0.00000000	-96.05221127	-12.49869373	0.00000000	0.00000000
9.53500000	30.00000000	0.00000000	0.00000000	0.08261457	0.06361172	0.00000000	0.00000000	2.17210623	0.00000000	0.00000000	-96.17712967	-12.81449719	0.00000000	0.00000000
9.54000000	30.00000000	0.00000000	0.00000000	0.08263285	0.06381781	0.00000000	0.00000000	2.06598897	0.00000000	0.00000000	-96.33424289	-13.09166188	0.00000000	0.00000000
9.54500000	30.00000000	0.00000000	0.00000000	0.08267581	0.06399887	0.00000000	0.00000000	1.91950498	0.00000000	0.00000000	-96.16596535	-13.02087341	0.00000000	0.00000000
9.55000000	30.00000000	0.00000000	0.00000000	0.08273024	0.06419099	0.00000000	0.00000000	1.81995780	0.00000000	0.00000000	-96.08478147	-13.41655092	0.00000000	0.00000000
9.55500000	30.00000000	0.00000000	0.00000000	0.08278021	0.06439287	0.00000000	0.00000000	1.54122582	0.00000000	0.00000000	-95.85458002	-13.62087811	0.00000000	0.00000000
9.56000000	30.00000000	0.00000000	0.00000000	0.08280348	0.06457869	0.00000000	0.00000000	1.63448487	0.00000000	0.00000000	-95.84476896	-14.01580352	0.00000000	0.00000000
